<svg version="1" xmlns="http://www.w3.org/2000/svg" width="960" height="960" viewBox="0 0 720.000000 720.000000"><path d="M372.7.7c-.1.1-3.8.4-8.2.8-4.4.3-9.1.7-10.5.9-1.4.2-4.8.7-7.5 1-17.3 2.4-42 8.4-60.2 14.6-6.5 2.3-12.2 4.2-12.8 4.4C267.2 24.3 233.4 40 227 44c-.8.5-6.4 3.9-12.3 7.5-13.9 8.4-36.6 24.8-43.8 31.7-.8.7-3 2.7-4.9 4.3-3.8 3.3-4.3 5.3-2 7.7.8.8 4 4.4 7 7.9s8.3 9.3 11.7 12.9c6 6.3 8.2 8.8 16.6 18 2.2 2.5 6.4 7 9.1 10 6.9 7.5 21.7 23.8 23.9 26.4 1.6 1.8 11.8 13.1 20.6 22.5 1.2 1.4 5.5 6.2 9.5 10.5 3.9 4.4 8.2 9.1 9.6 10.6 1.4 1.5 6.1 6.7 10.5 11.5 4.4 4.9 9 10 10.2 11.3 6.2 6.7 18 19.7 19.3 21.2 1.3 1.5 13.6 15 20 22 1.4 1.5 5.9 6.4 10 11 8.3 9.1 9.9 10.9 18 19.7 3 3.3 8.9 9.7 13 14.3 4.1 4.5 8.8 9.7 10.4 11.4 1.6 1.7 5 5.4 7.5 8.3 3.3 3.6 5.1 4.9 6 4.4 1.1-.7 1.4-29.8 1.4-173.8 0-95.2-.3-173.5-.7-174.2-.6-.9-4.3-1.1-12.8-.9-6.6.2-12 .4-12.1.5zm22.6 7.5c-.3 11.4.3 10.3-5.5 10.4-15.7.3-35.7 2.1-47.6 4.4-2.6.4-6.7 1.1-9.2 1.5-2.4.4-10.3 2.2-17.5 4.1-7.1 1.8-14 3.6-15.2 3.9-3.4.8-22.5 7.5-26 9.1-1.7.7-3.4 1.4-3.7 1.4-.5 0-16 7.2-27.1 12.6-11.4 5.6-40.4 24-47 29.8-1.6 1.4-3.3 2.6-3.7 2.6-.4 0-1.5.8-2.5 1.9-1 1-4.8 4.3-8.5 7.4l-6.6 5.6-4.6-4.7c-2.5-2.6-4.6-5.1-4.6-5.6 0-4.2 41.1-34.3 64.5-47.1 15.3-8.4 42.6-20.6 51.5-23 .3-.1 1.2-.4 2-.7 12.3-4.6 34-10.5 45.2-12.3 1.8-.3 4.7-.8 6.3-1.2 1.7-.4 3.8-.8 4.8-.9.9-.1 1.8-.2 2-.3.1-.2 1.8-.4 3.7-.6 1.9-.1 5.1-.5 7-.8 1.9-.3 7.1-.9 11.5-1.2 4.4-.4 8.1-.8 8.2-.9.1-.1 5.3-.3 11.5-.4l11.3-.3-.2 5.3zm0 179.6c0 85.4-.2 155.5-.5 155.7-.4.4-11.6-11.2-19.1-19.9-1.6-1.8-12.9-14.2-20.5-22.5-1.3-1.4-5.6-6.2-9.5-10.5-4-4.3-8.3-9.1-9.7-10.6-1.4-1.5-6.1-6.7-10.5-11.5-4.4-4.9-9-10-10.2-11.3-1.3-1.4-5.8-6.3-10-11-4.3-4.7-9.1-10-10.8-11.8-1.6-1.7-5.9-6.4-9.4-10.4-3.6-3.9-7.8-8.6-9.5-10.4-1.7-1.8-6-6.5-9.5-10.4-3.5-3.9-8.2-9.1-10.5-11.5-2.2-2.5-5.7-6.2-7.5-8.3-3.1-3.4-8.4-9.2-29-31.9-2.5-2.8-8.4-9.3-13.1-14.5-4.7-5.1-9.4-10.3-10.5-11.5-6.3-6.6-10.5-11.6-10.5-12.4 0-1.4 21.9-18.8 33.4-26.6C236.8 74.1 257.3 63.2 278 55c11-4.4 25.9-9.5 30.1-10.4 1.3-.2 4.7-1.1 7.4-2 2.8-.8 6.4-1.7 8-2 1.7-.3 3.9-.8 5-1 11.8-2.6 16.9-3.6 22-4.1 3.3-.4 6.9-.9 8-1.1 1.1-.2 6.3-.7 11.5-1 5.2-.4 9.6-.7 9.7-.8.1 0 3.6-.1 7.9-.1h7.7v155.3z"/><path d="M111.4 128.3C74 166.8 48.7 207.8 30 260.5c-2.1 6-6 19-6.6 22.5-.3 1.4-.8 3.4-1.1 4.5-.7 2.1-.8 2.3-1.6 6.5-.3 1.4-1.2 5.6-2 9.5-1.4 6.2-2 10.2-3.3 19.8-.2 1.5-.6 3.9-.8 5.4-2.7 14.8-2.8 71.6-.2 85 .3 1.2.7 5 1.1 8.4.4 3.5.8 6.6 1 6.9.2.3.6 2.1.9 4 .3 1.9 1 6 1.6 9 .6 3 1.4 6.6 1.6 8 .3 1.4 1.6 6.5 3 11.5 11.5 41.8 28.6 78 52.7 112 3.9 5.5 7.3 10.2 7.7 10.5.3.3 2.1 2.5 4 5 9.6 12.5 27.5 31.2 41.5 43.5 3.7 3.3 7.3 6.5 8 7.2 2.2 2.1 26.6 20.3 28.9 21.5 1.1.6 2.3 1.4 2.6 1.8 1.7 2.3 34.9 20.5 49 26.8 8.3 3.7 24.4 9.9 33 12.6 9.6 3.1 10.3 3.3 11 3.4.3 0 1.7.5 3.3 1.1 1.5.6 3.8 1.3 5 1.5 1.2.2 6 1.3 10.7 2.4 12.3 2.9 18 4.2 22 4.6 1.9.3 4.9.7 6.5 1 11.8 2.1 24.3 2.8 50 2.9 21.4.1 29.1-.2 42.9-1.8 5.6-.6 16.9-2.4 19.6-3 .3-.1 2.5-.5 5-.9 15.7-2.7 41-10.2 61.5-18.3 58.5-23.1 112-63.9 149.1-113.7 4.2-5.5 8.1-10.8 8.9-11.7.7-.9 2.6-3.8 4.1-6.4 1.6-2.6 3.6-5.7 4.4-7 3.8-5.9 10-16.8 10-17.5 0-.4.7-1.3 1.5-2s1.5-2.1 1.5-3.1c0-1.1.5-1.9 1-1.9.6 0 1-.4 1-1 0-.5 2-5 4.4-9.9 11.6-23.6 23.9-61.6 28-86.6 1.7-10.5 3.3-21.8 4.1-29 .9-8.9 1.7-30.7 1.1-32.9l-.5-2.2-173.3.1H360.5l-3-3c-1.6-1.7-6.8-7.3-11.5-12.5s-9.4-10.4-10.5-11.6c-2.1-2.1-16.8-18.3-19.5-21.4-1.3-1.4-9.2-10.1-19.3-21.2-1.2-1.3-6-6.7-10.7-11.8-4.7-5.2-10.1-11.1-12.1-13.2-2-2.1-3.5-3.8-3.4-3.8.2 0-1.1-1.5-2.8-3.3-3.3-3.3-18.6-20.1-26.7-29.2-2.5-2.7-5.8-6.4-7.5-8.1-1.6-1.7-4.5-4.8-6.4-7-3.2-3.7-17.4-19.4-21.6-23.8-1.1-1.2-5.8-6.4-10.5-11.6-4.7-5.2-9.4-10.4-10.5-11.6-1.1-1.1-5.4-5.8-9.5-10.4-4.1-4.6-8.8-9.8-10.5-11.5-3.6-3.9-17.2-18.8-20-22-11.4-12.8-17.1-18.5-18.5-18.5-1 0-7.5 6-14.6 13.3zm23.4-1.1c1.1 1.4.1 2.9-8 11.1-10.1 10.3-18.3 19.5-23.8 26.6-1.9 2.5-4.3 5.4-5.2 6.5-2.4 2.7-17.7 25.8-23 34.6-17.1 28.9-33.1 72.2-38.7 105-.6 3.6-1.3 7.4-1.5 8.6-1.4 7-3.6 29.6-4.1 42.5-.1 4.1-.3 7.6-.4 7.9-.1.4-11.2.5-14.5.1-.8-.1-.1-26.8.8-31.6.2-1.1.7-4.9 1-8.5 1.4-13.3 5-32.1 8.7-45.7 1.1-4 2.2-8 2.4-9 .2-1 .8-3 1.4-4.6.6-1.5.8-2.7.5-2.7-.4 0-.2-.6.3-1.3.6-.6 1.8-3.7 2.7-6.7 6-18.7 21.8-52.1 33.3-70.2 7.2-11.4 18-27 21-30.3 1-1.1 4.5-5.4 7.8-9.5s11.5-13.1 18.2-19.9l12.2-12.5 3.8 4c2.1 2.2 4.4 4.7 5.1 5.6zm22.7 24.9c3.3 3.6 9.4 10.3 13.5 14.9s9.8 10.9 12.7 14c2.9 3.1 6 6.5 7 7.7 2.3 2.6 16.7 18.5 21.2 23.2 1.8 2 6.3 6.9 10 11 3.6 4.1 7.7 8.6 9.1 10.1 1.4 1.5 6 6.5 10.3 11.2 4.2 4.7 8.7 9.6 10 11 1.2 1.3 5.6 6.2 9.7 10.8 4.1 4.6 8.9 9.8 10.5 11.5 1.7 1.8 6.6 7.2 11 12 4.4 4.9 9 10 10.2 11.3 1.3 1.4 5.8 6.3 10 11 4.3 4.8 8.5 9.3 9.3 10.2.8.9 5.5 6.1 10.5 11.6 4.9 5.4 9.6 10.6 10.5 11.5 6.7 7 22 24.2 22 24.9 0 1-309.5.6-310.2-.4-1.4-2 1.2-37.4 3.7-50.6.3-1.4.7-3.6 1-5 .4-2.4 2-10.2 3-14.5 1.3-6.4 5.1-19.5 8.7-29.9 15.5-45.6 39.9-85.2 74.2-120.3l9.9-10.3 3.1 3.3c1.7 1.8 5.8 6.2 9.1 9.8zM30.1 373.9c0 .3.2 3.1.4 6.1 1.8 28.8 3.2 40.8 7 59.5 5.8 28 16.7 58.6 30.4 84.9 8.9 17.2 21.5 36.9 30.6 48 2.5 3.1 4.5 6 4.5 6.5s.3 1.1.8 1.3c.4.1 4.1 4.1 8.2 8.8 4.1 4.7 11.4 12.5 16.3 17.3 10 10 9.8 8.1 2 16.6l-3.3 3.5-2.7-2.5c-10.4-9.3-33.6-35.1-40.8-45.4-1.1-1.6-3-4.1-4.2-5.6-1.3-1.5-2.3-3.1-2.3-3.7 0-.6-.3-1.2-.7-1.4-.9-.3-7.3-9.3-7.3-10.2 0-.3-1.3-2.5-3-4.9-1.6-2.5-3-4.9-3-5.5 0-.6-.3-1.2-.7-1.4-2-.8-16.3-29.7-22.3-44.7-4.6-11.7-9.6-25.9-11-31.1-.5-1.9-1.8-7.1-3-11.5-2.3-8.3-2.7-10-3.5-15-.3-1.7-.8-3.8-1.1-4.8-.3-1-.7-3.1-.9-4.8-.3-1.7-.7-3.8-.9-4.8-.3-.9-.8-3.7-1.1-6.4-.3-2.6-.7-6.6-1-9-1.2-9.9-1.6-14.9-2.1-27.3l-.6-13.2 7.6.1c4.2 0 7.6.3 7.7.6zm323.6 1c-.6.9-1.6 2.1-2.2 2.7-.5.6-4.4 4.8-8.5 9.4-4.1 4.6-8.3 9.2-9.2 10.3-3.7 4.2-15.4 17.2-16.8 18.7-.8.9-5.5 6-10.5 11.5-4.9 5.5-9.4 10.5-10 11.1-.5.6-4.4 4.8-8.5 9.4-4.1 4.6-7.9 8.8-8.5 9.4-.5.6-4.6 5.1-9 10.1-4.4 4.9-9.9 11-12.1 13.5-7.4 8-9.5 10.4-16.3 17.9-11.8 13.3-23.4 26-27.7 30.7-1.7 1.8-6 6.6-9.5 10.5-3.5 4-7.7 8.7-9.4 10.5-1.6 1.8-5.9 6.5-9.5 10.5-3.6 4-7.6 8.4-8.9 9.8-1.3 1.4-5.3 5.9-9 10-3.6 4.1-8.7 9.8-11.4 12.7-2.6 2.8-6 6.6-7.5 8.3l-2.7 3.2-10.5-10.7c-12-12.1-10.8-10.8-18.3-19.9-7.7-9.2-7.3-8.7-14.4-18.5-24.9-34.5-44.4-79.3-52.9-121.5-1.1-5.6-1.4-7.4-1.9-11.5-.3-2.5-.8-5.2-1-6-1.6-6.2-3.9-41.1-2.9-43.1.2-.3 70.1-.6 155.3-.6 141.3 0 155 .2 153.8 1.6zm350.9 12.5c-.6 13.5-.8 16.6-2.1 26.6-.5 4.1-3.1 20.1-4.1 26-2.1 11.8-12.1 46.6-14.9 52.1-.8 1.5-1.5 3.3-1.5 3.9 0 .5-.9 3.2-2.1 5.8-1.2 2.6-2.5 5.6-2.9 6.7-1.8 4.2-14.2 29.3-17.2 34.5-3.2 5.6-16.9 27-18.8 29.3-.5.6-4.1 5.3-7.9 10.4-3.8 5-8.4 10.8-10.3 12.9-12.7 14.2-19 20.8-27.2 28.4l-2.7 2.5-4.5-4.9-4.4-4.9 8.7-8.7c28.4-28.1 47.6-54.5 64.9-89.1 12.3-24.5 23.6-57.5 28-81.4.3-1.7.9-4.8 1.3-7 .5-2.2.9-4.7.9-5.5 0-.8.5-4.2 1.1-7.5.9-5.4 1.5-11 2.6-24.5.2-2.5.5-7.4.6-11 .1-3.6.4-7 .6-7.7.3-.8 2.6-1.2 6.5-1.1l6 .2-.6 14zM358.4 531.2c-.1 86-.2 156.7-.3 157.1-.1.8-16.5.3-25.6-.7-11.6-1.3-16.4-1.9-26.9-3.7-6.6-1.1-12.3-2.2-12.6-2.4-.4-.2-2-.6-3.6-.9-16.7-3-47.6-14.2-69.6-25.2-10.1-5-29.5-15.9-30.8-17.4-1.2-1.2-10.1-7-10.9-7-.5 0-1.1-.3-1.3-.8-.1-.4-3-2.7-6.3-5.1-3.3-2.5-6.4-5-7-5.6-.5-.5-3-2.6-5.5-4.5-2.4-1.9-5.5-4.5-6.8-5.7l-2.5-2.3 5.6-6.2c3.1-3.5 7.2-8.1 9.2-10.3 2-2.2 6.2-6.9 9.3-10.4 3.1-3.5 7.1-7.9 8.7-9.6 1.7-1.8 5.9-6.6 9.5-10.6 3.6-4 7.4-8.2 8.5-9.4 2.7-2.8 9.3-10.2 18.5-20.5 4.1-4.6 8.2-9.1 9-10 .8-.8 5.5-6 10.5-11.5 11.2-12.5 15.5-17.2 18-19.9 1.1-1.2 7.4-8.2 14-15.6s12.5-14 13-14.6c.9-1 13.9-15.3 18.8-20.6 1.2-1.4 5.4-6 9.2-10.3 3.9-4.3 8.3-9.2 9.8-10.8 1.6-1.7 5.6-6.2 9-10 3.4-3.8 7.1-7.9 8.2-9.1 1.1-1.2 4.4-4.9 7.3-8.2 5.7-6.2 13.4-14.4 13.6-14.4.1 0 .1 70.3 0 156.2zm7.7-149.8c1.5 1.7 3.7 4.3 5 5.7 1.3 1.4 6.2 6.8 10.9 11.9 9 9.9 9.2 10.1 20.5 22.5 4.1 4.4 8.2 9 9.2 10.1 1 1.2 5.6 6.3 10.3 11.4 4.7 5.1 9.2 10 10 11 1.8 2 16.2 17.9 24.1 26.4 3 3.4 7.5 8.3 10 11 2.4 2.7 5.5 6.1 6.9 7.6 1.4 1.4 5.7 6.1 9.5 10.4 3.9 4.3 8.6 9.6 10.5 11.6 1.9 2.1 7.1 7.7 11.5 12.6 4.4 4.9 9.4 10.3 11.1 12.1 1.7 1.8 5.1 5.6 7.5 8.4 2.4 2.8 6 6.7 7.9 8.7 4.5 4.6 30.8 33.7 34.1 37.6 1.3 1.6 3.5 4 4.9 5.3l2.5 2.4-4.7 4.2c-16.3 14.7-43.1 32.5-64.8 43.1-10.1 5-20.7 9.7-21.2 9.6-.2-.1-2.8 1-5.8 2.3-11.4 5.1-43.9 14.3-56.5 16.2-2.2.3-4.7.7-5.5 1-.8.2-3.7.6-6.5 1-2.7.3-6.3.8-8 1-11.5 1.7-37.4 2.8-37.6 1.8-.7-4.3-.2-311 .5-310.5.5.3 2.2 1.9 3.7 3.6zm311.4 14.5c-.4 5.2-.8 10.2-1 11-.1.9-.6 4.3-1 7.6-.3 3.2-.8 6.2-1 6.5-.1.3-.6 2.5-.9 5-.3 2.5-.8 5.6-1.1 7-.3 1.4-.8 3.6-1 5-.9 5.6-4.7 19.7-7.7 28.8-1.7 5.3-3.3 10.1-3.4 10.7-1.1 5.2-17.5 42.2-19.2 43.5-.4.3-1.8 2.9-3.2 5.7-1.4 2.9-2.8 5.3-3.2 5.3-.5 0-.8.5-.8 1.1 0 1.6-11.9 19.6-20.4 30.8-9.5 12.5-12.7 16.2-26.8 30.6l-11.8 12-4.2-4.5c-2.4-2.5-8.4-9-13.3-14.5-5-5.5-11.5-12.7-14.5-15.9-7.5-8.1-7.5-8.1-16.5-18.2-4.4-4.9-9.1-10.1-10.5-11.5-1.4-1.4-4.2-4.6-6.4-7-2.1-2.4-6.3-7.1-9.5-10.4-3.1-3.4-9.2-10.1-13.6-15-4.4-4.8-8.9-9.8-10-10.9-1.1-1.2-5.8-6.4-10.5-11.6-4.7-5.2-9.2-10.1-10-11-.8-.9-5.3-5.8-10-11-4.7-5.1-8.9-9.8-9.5-10.4-.5-.6-5-5.6-10-11-4.9-5.5-9.7-10.7-10.5-11.6-.8-.9-5.1-5.6-9.5-10.4-4.4-4.9-9.1-10.1-10.5-11.6-6.7-7.3-21-23.2-21-23.4 0-.1 68.2-.1 151.6-.1h151.6l-.7 9.4zm-528 230c9.7 8.1 32.4 24.5 40 28.7 1.1.6 4.9 2.8 8.5 4.9 9.9 5.7 28.5 14.7 38 18.4 4.7 1.8 9.9 3.9 11.5 4.6 11.2 4.7 40.2 12.5 58 15.4 14.7 2.5 34 4.4 46 4.5 3.3.1 6.2.4 6.5.8.3.4.5 3.5.5 7v6.3l-11.5-.1c-6.3 0-14.2-.3-17.5-.7-3.3-.4-8.7-1-12-1.3-7.6-.9-10-1.2-10-1.4 0-.1-1.3-.3-3-.5-19.3-2.1-57.3-13.1-80.5-23.2-19.1-8.4-52.7-26.8-53.8-29.5-.2-.4-.8-.8-1.3-.8-1.2 0-20.3-13.9-20.7-15.2-.2-.4-.8-.8-1.4-.8-1.6 0-16.7-13.4-16.5-14.7.1-.6 2.2-3.4 4.6-6.1l4.5-5.1 3.6 3.2c2 1.8 4.9 4.3 6.5 5.6zm436.9-2.2c3.2 3.4 4.1 5 3.2 5.8-1.3 1.2-14.4 12.3-17.2 14.5-20 15.7-48.3 32.8-71.9 43.2-8.4 3.8-31.2 12.5-34.5 13.3-.8.2-7.1 2-13.9 3.9-11.2 3.2-23.3 6.1-30.1 7.1-1.4.2-3.4.6-4.5.9-1.2.2-4.8.7-8 1.1-3.3.4-6.9.9-8 1.1-4.3.8-17.5 1.7-28.5 1.8l-11.5.1-.1-6.8c0-3.7.2-6.8.5-6.8.3-.1 4.7-.3 9.6-.4 10.3-.4 23.8-1.4 27.5-2.1 1.4-.2 5-.7 8-1 3-.3 11.1-1.7 18-3 38.5-7.8 74.2-21.5 107-41.2 7.7-4.6 26.1-17 27-18.1.3-.4 2.1-1.8 4-3.1s3.7-2.7 4-3c.3-.3 3-2.5 6-5s5.9-5 6.3-5.7c1.3-2.1 2.5-1.5 7.1 3.4z"/></svg>