<svg xmlns="http://www.w3.org/2000/svg" viewBox="0 0 174.02 179.93"><defs><style>.cls-1,.cls-2{fill:none;}.cls-1,.cls-2,.cls-3{stroke:#000;stroke-miterlimit:10;}.cls-1{stroke-width:0.71px;}.cls-2,.cls-3{stroke-width:3.4px;}.cls-3{fill:#fff;}</style></defs><title>Garbanzo Logo final ohne Schriftzug</title><g id="V1"><g id="Ebene_2_Kopie" data-name="Ebene 2 Kopie"><path class="cls-1" d="M15,123.56a86.4,86.4,0,0,1,28.23-64" transform="translate(-14.65 -30.65)"/><path class="cls-1" d="M43.43,187.74A86.43,86.43,0,0,1,15,123.56" transform="translate(-14.65 -30.65)"/><path class="cls-1" d="M101.66,210.22a86.31,86.31,0,0,1-58.23-22.48" transform="translate(-14.65 -30.65)"/><path class="cls-1" d="M159.88,187.74a86.31,86.31,0,0,1-58.22,22.48" transform="translate(-14.65 -30.65)"/><path class="cls-1" d="M188.31,123.56a86.43,86.43,0,0,1-28.43,64.18" transform="translate(-14.65 -30.65)"/><line class="cls-1" x1="87.01" y1="93.12" x2="87.01" y2="179.57"/><line class="cls-1" x1="0.35" y1="92.92" x2="86.53" y2="92.92"/><line class="cls-1" x1="90.2" y1="96.63" x2="145.44" y2="157.32"/><line class="cls-1" x1="87.01" y1="93.12" x2="90.2" y2="96.63"/><line class="cls-1" x1="86.53" y1="93.12" x2="28.58" y2="157.32"/><line class="cls-1" x1="86.53" y1="92.92" x2="173.67" y2="92.92"/><line class="cls-1" x1="28.58" y1="28.92" x2="87.01" y2="93.12"/></g><g id="Ebene_7" data-name="Ebene 7"><line class="cls-1" x1="96.2" y1="0.35" x2="96.2" y2="11.68"/><path class="cls-1" d="M52.42,53.66A86.36,86.36,0,0,1,110.85,31" transform="translate(-14.65 -30.65)"/><line class="cls-1" x1="37.77" y1="23.02" x2="96.2" y2="87.21"/><line class="cls-1" x1="96.2" y1="0.35" x2="96.2" y2="87.21"/></g></g><g id="V4_Anschnitt" data-name="V4 Anschnitt"><path class="cls-2" d="M21,123.52A80.82,80.82,0,0,1,47.38,63.7" transform="translate(-14.65 -30.65)"/><path class="cls-2" d="M47.57,183.51a80.77,80.77,0,0,1-26.57-60" transform="translate(-14.65 -30.65)"/><path class="cls-2" d="M102,204.52a80.69,80.69,0,0,1-54.43-21" transform="translate(-14.65 -30.65)"/><path class="cls-2" d="M156.43,183.51a80.69,80.69,0,0,1-54.43,21" transform="translate(-14.65 -30.65)"/><path class="cls-2" d="M183,123.52a80.77,80.77,0,0,1-26.57,60" transform="translate(-14.65 -30.65)"/><line class="cls-3" x1="168.35" y1="94.88" x2="90.2" y2="94.86"/><g id="Ebene_16" data-name="Ebene 16"><polygon points="86.85 92.85 90.35 96.35 90.35 93.35 86.85 92.85"/></g><path class="cls-2" d="M56,58.18A80.68,80.68,0,0,1,110.59,37" transform="translate(-14.65 -30.65)"/></g></svg>